<?xml version="1.0" encoding="iso-8859-1"?>
<!-- Generator: Adobe Illustrator 19.0.0, SVG Export Plug-In . SVG Version: 6.00 Build 0)  -->
<svg version="1.1" id="Capa_1" xmlns="http://www.w3.org/2000/svg" xmlns:xlink="http://www.w3.org/1999/xlink" x="0px" y="0px"
	 viewBox="0 0 512 512" style="enable-background:new 0 0 512 512;" xml:space="preserve">
<g>
	<g>
		<g>
			<path d="M53.333,448c-5.888,0-10.667,4.779-10.667,10.667s4.779,10.667,10.667,10.667S64,464.576,64,458.667
				S59.221,448,53.333,448z"/>
			<path d="M330.667,448h-85.333c-5.888,0-10.667,4.779-10.667,10.667s4.779,10.667,10.667,10.667h85.333
				c5.888,0,10.667-4.779,10.667-10.667S336.555,448,330.667,448z"/>
			<path d="M402.048,128.491C387.221,54.613,321.387,0,245.333,0c-88.235,0-160,71.744-160,160c0,3.605,0.149,7.275,0.469,11.2
				C37.653,176.299,0,217.173,0,266.667c0,8.555,1.365,17.173,4.309,27.093c1.685,5.653,7.616,8.939,13.248,7.211
				c5.653-1.664,8.875-7.595,7.211-13.248c-2.347-7.915-3.435-14.613-3.435-21.056c0-41.173,33.493-74.667,73.984-74.709
				c3.52,0.512,8.107-0.747,10.475-3.477c2.027-2.325,2.944-5.419,2.496-8.491c-1.109-7.659-1.621-14.016-1.621-19.989
				c0-76.437,62.208-138.667,138.667-138.667c68.501,0,127.445,51.157,137.109,118.997c0.747,5.355,6.976,9.088,12.224,9.003
				c52.928,0,96,43.072,96,96c0,45.547-32.384,85.12-76.992,94.08c-5.781,1.173-9.515,6.784-8.363,12.565
				c1.024,5.056,5.483,8.555,10.453,8.555c0.704,0,1.408-0.064,2.112-0.213C472.427,349.333,512,300.992,512,245.333
				C512,183.659,464.192,132.949,402.048,128.491z"/>
			<path d="M53.333,362.667c-5.888,0-10.667,4.779-10.667,10.667c0,5.888,4.779,10.667,10.667,10.667S64,379.243,64,373.333
				C64,367.424,59.221,362.667,53.333,362.667z"/>
			<path d="M352,320H32c-17.643,0-32,14.357-32,32v42.667C0,402.88,3.2,410.325,8.32,416C3.2,421.696,0,429.12,0,437.333V480
				c0,17.664,14.357,32,32,32h320c17.643,0,32-14.357,32-32v-42.667c0-8.213-3.2-15.659-8.32-21.333
				c5.12-5.675,8.32-13.12,8.32-21.333V352C384,334.357,369.643,320,352,320z M362.667,480c0,5.888-4.779,10.667-10.667,10.667H32
				c-5.888,0-10.667-4.779-10.667-10.667v-42.667c0-5.888,4.779-10.667,10.667-10.667h320c5.888,0,10.667,4.779,10.667,10.667V480z
				 M362.667,394.667c0,5.888-4.779,10.667-10.667,10.667H32c-5.888,0-10.667-4.779-10.667-10.667V352
				c0-5.888,4.779-10.667,10.667-10.667h320c5.888,0,10.667,4.779,10.667,10.667V394.667z"/>
			<path d="M330.667,362.667h-85.333c-5.888,0-10.667,4.779-10.667,10.667c0,5.888,4.779,10.667,10.667,10.667h85.333
				c5.888,0,10.667-4.779,10.667-10.667C341.333,367.445,336.555,362.667,330.667,362.667z"/>
		</g>
	</g>
</g>
<g>
</g>
<g>
</g>
<g>
</g>
<g>
</g>
<g>
</g>
<g>
</g>
<g>
</g>
<g>
</g>
<g>
</g>
<g>
</g>
<g>
</g>
<g>
</g>
<g>
</g>
<g>
</g>
<g>
</g>
</svg>
