<?xml version="1.0"?>
<svg xmlns="http://www.w3.org/2000/svg" viewBox="0 0 64 64" width="512" height="512"><g id="Workflow"><path d="M43,46H39.333L36,43.5V40.736A7,7,0,0,0,38.92,36H40a2,2,0,0,0,2-2V33a2,2,0,0,0-1.624-1.962l1.331-1.331A1,1,0,0,0,42,29V28a6.9,6.9,0,0,0-.942-3.5A7.01,7.01,0,0,0,35,21H29a7,7,0,0,0-6.052,3.491A6.908,6.908,0,0,0,22,28v1a1,1,0,0,0,.293.707l1.331,1.331A2,2,0,0,0,22,33v1a2,2,0,0,0,2,2h1.08A7,7,0,0,0,28,40.736V43.5L24.667,46H21a3,3,0,0,0-3,3V61a1,1,0,0,0,1,1H45a1,1,0,0,0,1-1V49A3,3,0,0,0,43,46ZM40,34H39V33h1ZM24,28a4.841,4.841,0,0,1,.677-2.5A5,5,0,0,1,29,23h6a5,5,0,0,1,4.329,2.509A4.831,4.831,0,0,1,40,28v.586l-1,1V29a1,1,0,0,0-.758-.97l-8-2a.99.99,0,0,0-.689.075l-4,2A1,1,0,0,0,25,29v.586l-1-1Zm0,5h1v1H24Zm3,2V29.618l3.116-1.558L37,29.781V35a5,5,0,0,1-10,0Zm2.6,9.8A1,1,0,0,0,30,44v-2.3a6.927,6.927,0,0,0,4,0V44a1,1,0,0,0,.4.8l2.783,2.087L32,49.849l-5.183-2.962Zm7.989,4.158L36.341,55.2a1,1,0,0,1-.981.8H28.64a1,1,0,0,1-.981-.8l-1.248-6.238,5.093,2.91a1,1,0,0,0,.992,0ZM44,60H20V49a1,1,0,0,1,1-1h3.18L25.7,55.588A3.008,3.008,0,0,0,28.64,58h6.72A3.008,3.008,0,0,0,38.3,55.589L39.82,48H43a1,1,0,0,1,1,1Z"/><path d="M59,2H47a3,3,0,0,0-3,3V17a3,3,0,0,0,3,3H59a3,3,0,0,0,3-3V5A3,3,0,0,0,59,2Zm1,15a1,1,0,0,1-1,1H47a1,1,0,0,1-1-1V5a1,1,0,0,1,1-1H59a1,1,0,0,1,1,1Z"/><path d="M51.906,37.68,48.6,35.2l-1.2,1.6,4,3a1,1,0,0,0,1.307-.093l6-6-1.414-1.414Z"/><path d="M5,20H17a3,3,0,0,0,3-3V5a3,3,0,0,0-3-3H5A3,3,0,0,0,2,5V17A3,3,0,0,0,5,20ZM4,5A1,1,0,0,1,5,4H17a1,1,0,0,1,1,1V17a1,1,0,0,1-1,1H5a1,1,0,0,1-1-1Z"/><path d="M20,43V31a3,3,0,0,0-3-3H5a3,3,0,0,0-3,3V43a3,3,0,0,0,3,3H17A3,3,0,0,0,20,43Zm-2,0a1,1,0,0,1-1,1H5a1,1,0,0,1-1-1V31a1,1,0,0,1,1-1H17a1,1,0,0,1,1,1Z"/><path d="M10,14.858V17h2V14.858A3.991,3.991,0,0,0,14.858,12H17V10H14.858A3.991,3.991,0,0,0,12,7.142V5H10V7.142A3.991,3.991,0,0,0,7.142,10H5v2H7.142A3.991,3.991,0,0,0,10,14.858ZM11,9a2,2,0,1,1-2,2A2,2,0,0,1,11,9Z"/><path d="M36.293,14.293l1.414,1.414,4-4L41.7,11.7a.974.974,0,0,0,.006-1.408l-4-4L36.293,7.707,38.586,10H22v2H38.586Z"/><path d="M10.293,22.293l-3,3,1.414,1.414L11,24.414l2.293,2.293,1.414-1.414-3-3A1,1,0,0,0,10.293,22.293Z"/><path d="M59,28H47a3,3,0,0,0-3,3V43a3,3,0,0,0,3,3H59a3,3,0,0,0,3-3V31A3,3,0,0,0,59,28Zm1,15a1,1,0,0,1-1,1H47a1,1,0,0,1-1-1V31a1,1,0,0,1,1-1H59a1,1,0,0,1,1,1Z"/><path d="M53.707,26.707l3-3-1.414-1.414L53,24.586l-2.293-2.293-1.414,1.414,3,3a1,1,0,0,0,1.414,0Z"/><rect x="48" y="6" width="10" height="2"/><rect x="48" y="10" width="10" height="2"/><rect x="48" y="14" width="10" height="2"/><rect x="10" y="36" width="2" height="2"/><rect x="14" y="36" width="2" height="2"/><rect x="6" y="36" width="2" height="2"/></g></svg>
